# xmcd CD database file
#
# Track frame offsets:
#	150
#	26018
#	45234
#	80874
#	99901
#	113274
#	145815
#	177068
#	202835
#	228966
#	255527
#	273446
#
# Disc length: 3902 seconds
#
# Revision: 0
# Processed by: cddbd v1.5.2PL0 Copyright (c) Steve Scherf et al.
# Submitted via: CDex 1.50
#
DISCID=8c0f3c0c
DTITLE=Various Artist - Jazz Moods - Sounds Of Spring
DYEAR=2005
DGENRE=Jazz
TTITLE0=Red Garland Trio - Spring will be a little late this year
TTITLE1=Carol Sloane and Bill Charlap - You make ma feel so young
TTITLE2=Miles Davis - I'll remember April
TTITLE3=Count Basie - Royal garden blues
TTITLE4=Tony Bechett and Ruby Braff and George Barnes - Mountain greenery
TTITLE5=Freddie Hubbard - Up jumped spring
TTITLE6=John Coltrane - Spring is here
TTITLE7=Karrin Allyson - Too young to go steady
TTITLE8=Larry Coryell and Emily Remler - Joy spring
TTITLE9=Bill Evans - April in Paris
TTITLE10=Susannah McCorkle - The waters of march
TTITLE11=Barney Kessel and Shelly Manne and Ray Brown - When the red red robin comes bob bob bobbin' along
EXTD=YEAR: 2005
EXTT0=
EXTT1=
EXTT2=
EXTT3=
EXTT4=
EXTT5=
EXTT6=
EXTT7=
EXTT8=
EXTT9=
EXTT10=
EXTT11=
PLAYORDER=
